# xmcd
#
# Track frame offsets:
#	150
#	11509
#	27584
#	45063
#	64196
#	93166
#	108588
#	131002
#	158802
#	174927
#	199771
#
# Disc length: 3029 seconds
#
# Revision: 1
# Processed by: cddbd v1.5.1PL2 Copyright (c) Steve Scherf et al.
# Submitted via: audiograbber 1.83.01
#
DISCID=840bd30b
DTITLE=Johnny Duke and the Aces - Johnny Duke and the Aces
DYEAR=2005
DGENRE=Blues
TTITLE0=Wave Ride
TTITLE1=Lost Way Blues
TTITLE2=Something's Wrong Here
TTITLE3=A Little Bit More
TTITLE4=First Time I Met the Blues
TTITLE5=Killing Floor
TTITLE6=Another Day
TTITLE7=Who Knows
TTITLE8=Watch Out
TTITLE9=Inside
TTITLE10=Mississippi Blues
EXTD=
EXTT0=
EXTT1=
EXTT2=
EXTT3=
EXTT4=
EXTT5=
EXTT6=
EXTT7=
EXTT8=
EXTT9=
EXTT10=
PLAYORDER=
